  0
SECTION
  2
HEADER
  9
$ACADVER
  1
AC1014
  9
$HANDSEED
  5
FFFF
  9
$MEASUREMENT
 70
     1
  0
ENDSEC
  0
SECTION
  2
TABLES
  0
TABLE
  2
VPORT
  5
8
330
0
100
AcDbSymbolTable
 70
     4
  0
VPORT
  5
2E
330
8
100
AcDbSymbolTableRecord
100
AcDbViewportTableRecord
  2
*ACTIVE
 70
     0
 10
0.0
 20
0.0
 11
1.0
 21
1.0
 12
210.0
 22
148.5
 13
0.0
 23
0.0
 14
10.0
 24
10.0
 15
10.0
 25
10.0
 16
0.0
 26
0.0
 36
1.0
 17
0.0
 27
0.0
 37
0.0
 40
341.0
 41
1.24
 42
50.0
 43
0.0
 44
0.0
 50
0.0
 51
0.0
 71
     0
 72
   100
 73
     1
 74
     3
 75
     0
 76
     0
 77
     0
 78
     0
  0
ENDTAB
  0
TABLE
  2
LTYPE
  5
5
330
0
100
AcDbSymbolTable
 70
     1
  0
LTYPE
  5
14
330
5
100
AcDbSymbolTableRecord
100
AcDbLinetypeTableRecord
  2
BYBLOCK
 70
     0
  3

 72
    65
 73
     0
 40
0.0
  0
LTYPE
  5
15
330
5
100
AcDbSymbolTableRecord
100
AcDbLinetypeTableRecord
  2
BYLAYER
 70
     0
  3

 72
    65
 73
     0
 40
0.0
  0
LTYPE
  5
16
330
5
100
AcDbSymbolTableRecord
100
AcDbLinetypeTableRecord
  2
CONTINUOUS
 70
     0
  3
Solid line
 72
    65
 73
     0
 40
0.0
  0
ENDTAB
  0
TABLE
  2
LAYER
  5
2
100
AcDbSymbolTable
 70
1
  0
LAYER
  5
50
100
AcDbSymbolTableRecord
100
AcDbLayerTableRecord
  2
0
 70
0
  6
CONTINUOUS
  0
ENDTAB
  0
TABLE
  2
STYLE
  5
3
330
0
100
AcDbSymbolTable
 70
     1
  0
STYLE
  5
11
330
3
100
AcDbSymbolTableRecord
100
AcDbTextStyleTableRecord
  2
STANDARD
 70
     0
 40
0.0
 41
1.0
 50
0.0
 71
     0
 42
2.5
  3
txt
  4

  0
ENDTAB
  0
TABLE
  2
VIEW
  5
6
330
0
100
AcDbSymbolTable
 70
     0
  0
ENDTAB
  0
TABLE
  2
UCS
  5
7
330
0
100
AcDbSymbolTable
 70
     0
  0
ENDTAB
  0
TABLE
  2
APPID
  5
9
330
0
100
AcDbSymbolTable
 70
     2
  0
APPID
  5
12
330
9
100
AcDbSymbolTableRecord
100
AcDbRegAppTableRecord
  2
ACAD
 70
     0
  0
ENDTAB
  0
TABLE
  2
DIMSTYLE
  5
A
330
0
100
AcDbSymbolTable
 70
     1
  0
DIMSTYLE
105
27
330
A
100
AcDbSymbolTableRecord
100
AcDbDimStyleTableRecord
  2
ISO-25
 70
     0
  3

  4

  5

  6

  7

 40
1.0
 41
2.5
 42
0.625
 43
3.75
 44
1.25
 45
0.0
 46
0.0
 47
0.0
 48
0.0
140
2.5
141
2.5
142
0.0
143
0.03937007874016
144
1.0
145
0.0
146
1.0
147
0.625
 71
     0
 72
     0
 73
     0
 74
     0
 75
     0
 76
     0
 77
     1
 78
     8
170
     0
171
     3
172
     1
173
     0
174
     0
175
     0
176
     0
177
     0
178
     0
270
     2
271
     2
272
     2
273
     2
274
     3
340
11
275
     0
280
     0
281
     0
282
     0
283
     0
284
     8
285
     0
286
     0
287
     3
288
     0
  0
ENDTAB
  0
TABLE
  2
BLOCK_RECORD
  5
1
330
0
100
AcDbSymbolTable
 70
     1
  0
BLOCK_RECORD
  5
1F
330
1
100
AcDbSymbolTableRecord
100
AcDbBlockTableRecord
  2
*MODEL_SPACE
  0
BLOCK_RECORD
  5
1B
330
1
100
AcDbSymbolTableRecord
100
AcDbBlockTableRecord
  2
*PAPER_SPACE
  0
ENDTAB
  0
ENDSEC
  0
SECTION
  2
BLOCKS
  0
BLOCK
  5
20
330
1F
100
AcDbEntity
  8
0
100
AcDbBlockBegin
  2
*MODEL_SPACE
 70
     0
 10
0.0
 20
0.0
 30
0.0
  3
*MODEL_SPACE
  1

  0
ENDBLK
  5
21
330
1F
100
AcDbEntity
  8
0
100
AcDbBlockEnd
  0
BLOCK
  5
1C
330
1B
100
AcDbEntity
 67
     1
  8
0
100
AcDbBlockBegin
  2
*PAPER_SPACE
  1

  0
ENDBLK
  5
1D
330
1B
100
AcDbEntity
 67
     1
  8
0
100
AcDbBlockEnd
  0
ENDSEC
  0
SECTION
  2
ENTITIES
  0
SPLINE
  5
100
100
AcDbEntity
  8
0
 62
7
100
AcDbSpline
 70
8
 71
3
 72
8
 73
4
 74
0
 40
0
 40
0
 40
0
 40
0
 40
1
 40
1
 40
1
 40
1
 10
3.870457
 20
7.000370
 30
0.0
 10
3.743232
 20
7.002222
 30
0.0
 10
3.644527
 20
6.942696
 30
0.0
 10
3.644527
 20
6.821225
 30
0.0
  0
SPLINE
  5
101
100
AcDbEntity
  8
0
 62
7
100
AcDbSpline
 70
8
 71
3
 72
8
 73
4
 74
0
 40
0
 40
0
 40
0
 40
0
 40
1
 40
1
 40
1
 40
1
 10
3.644527
 20
6.821225
 30
0.0
 10
3.644527
 20
6.671723
 30
0.0
 10
3.606721
 20
6.036355
 30
0.0
 10
3.662783
 20
5.830789
 30
0.0
  0
SPLINE
  5
102
100
AcDbEntity
  8
0
 62
7
100
AcDbSpline
 70
8
 71
3
 72
8
 73
4
 74
0
 40
0
 40
0
 40
0
 40
0
 40
1
 40
1
 40
1
 40
1
 10
3.662783
 20
5.830789
 30
0.0
 10
3.718848
 20
5.625221
 30
0.0
 10
3.943210
 20
5.324493
 30
0.0
 10
4.111218
 20
5.120484
 30
0.0
  0
SPLINE
  5
103
100
AcDbEntity
  8
0
 62
7
100
AcDbSpline
 70
8
 71
3
 72
8
 73
4
 74
0
 40
0
 40
0
 40
0
 40
0
 40
1
 40
1
 40
1
 40
1
 10
4.111218
 20
5.120484
 30
0.0
 10
4.242033
 20
4.961636
 30
0.0
 10
4.167701
 20
4.578800
 30
0.0
 10
4.167701
 20
4.391919
 30
0.0
  0
SPLINE
  5
104
100
AcDbEntity
  8
0
 62
7
100
AcDbSpline
 70
8
 71
3
 72
8
 73
4
 74
0
 40
0
 40
0
 40
0
 40
0
 40
1
 40
1
 40
1
 40
1
 10
4.167701
 20
4.391919
 30
0.0
 10
4.167701
 20
4.205041
 30
0.0
 10
4.130059
 20
4.055308
 30
0.0
 10
4.055306
 20
4.055308
 30
0.0
  0
SPLINE
  5
105
100
AcDbEntity
  8
0
 62
7
100
AcDbSpline
 70
8
 71
3
 72
8
 73
4
 74
0
 40
0
 40
0
 40
0
 40
0
 40
1
 40
1
 40
1
 40
1
 10
4.055306
 20
4.055308
 30
0.0
 10
3.980556
 20
4.055308
 30
0.0
 10
3.868756
 20
3.980582
 30
0.0
 10
3.794006
 20
3.905829
 30
0.0
  0
SPLINE
  5
106
100
AcDbEntity
  8
0
 62
7
100
AcDbSpline
 70
8
 71
3
 72
8
 73
4
 74
0
 40
0
 40
0
 40
0
 40
0
 40
1
 40
1
 40
1
 40
1
 10
3.794006
 20
3.905829
 30
0.0
 10
3.719256
 20
3.831079
 30
0.0
 10
3.644400
 20
3.737512
 30
0.0
 10
3.550960
 20
3.812265
 30
0.0
  0
SPLINE
  5
107
100
AcDbEntity
  8
0
 62
7
100
AcDbSpline
 70
8
 71
3
 72
8
 73
4
 74
0
 40
0
 40
0
 40
0
 40
0
 40
1
 40
1
 40
1
 40
1
 10
3.550960
 20
3.812265
 30
0.0
 10
3.457522
 20
3.887015
 30
0.0
 10
3.289139
 20
3.961590
 30
0.0
 10
2.990133
 20
4.017653
 30
0.0
  0
SPLINE
  5
108
100
AcDbEntity
  8
0
 62
7
100
AcDbSpline
 70
8
 71
3
 72
8
 73
4
 74
0
 40
0
 40
0
 40
0
 40
0
 40
1
 40
1
 40
1
 40
1
 10
2.990133
 20
4.017653
 30
0.0
 10
2.691125
 20
4.073718
 30
0.0
 10
2.186739
 20
4.017918
 30
0.0
 10
1.869046
 20
3.905829
 30
0.0
  0
SPLINE
  5
109
100
AcDbEntity
  8
0
 62
7
100
AcDbSpline
 70
8
 71
3
 72
8
 73
4
 74
0
 40
0
 40
0
 40
0
 40
0
 40
1
 40
1
 40
1
 40
1
 10
1.869046
 20
3.905829
 30
0.0
 10
1.551353
 20
3.793704
 30
0.0
 10
0.878356
 20
3.176886
 30
0.0
 10
0.691478
 20
2.896568
 30
0.0
  0
SPLINE
  5
10a
100
AcDbEntity
  8
0
 62
7
100
AcDbSpline
 70
8
 71
3
 72
8
 73
4
 74
0
 40
0
 40
0
 40
0
 40
0
 40
1
 40
1
 40
1
 40
1
 10
0.691478
 20
2.896568
 30
0.0
 10
0.504600
 20
2.616250
 30
0.0
 10
0.486227
 20
1.756817
 30
0.0
 10
0.504915
 20
1.626005
 30
0.0
  0
SPLINE
  5
10b
100
AcDbEntity
  8
0
 62
7
100
AcDbSpline
 70
8
 71
3
 72
8
 73
4
 74
0
 40
0
 40
0
 40
0
 40
0
 40
1
 40
1
 40
1
 40
1
 10
0.504915
 20
1.626005
 30
0.0
 10
0.523595
 20
1.495190
 30
0.0
 10
0.467135
 20
1.401482
 30
0.0
 10
0.373695
 20
1.513610
 30
0.0
  0
SPLINE
  5
10c
100
AcDbEntity
  8
0
 62
7
100
AcDbSpline
 70
8
 71
3
 72
8
 73
4
 74
0
 40
0
 40
0
 40
0
 40
0
 40
1
 40
1
 40
1
 40
1
 10
0.373695
 20
1.513610
 30
0.0
 10
0.280257
 20
1.625738
 30
0.0
 10
0.205960
 20
1.569522
 30
0.0
 10
0.205960
 20
1.569522
 30
0.0
  0
SPLINE
  5
10d
100
AcDbEntity
  8
0
 62
7
100
AcDbSpline
 70
8
 71
3
 72
8
 73
4
 74
0
 40
0
 40
0
 40
0
 40
0
 40
1
 40
1
 40
1
 40
1
 10
0.205960
 20
1.569522
 30
0.0
 10
0.205960
 20
1.569522
 30
0.0
 10
0.112392
 20
1.382832
 30
0.0
 10
0.112392
 20
1.289394
 30
0.0
  0
SPLINE
  5
10e
100
AcDbEntity
  8
0
 62
7
100
AcDbSpline
 70
8
 71
3
 72
8
 73
4
 74
0
 40
0
 40
0
 40
0
 40
0
 40
1
 40
1
 40
1
 40
1
 10
0.112392
 20
1.289394
 30
0.0
 10
0.112392
 20
1.195954
 30
0.0
 10
0.149476
 20
1.102831
 30
0.0
 10
0.149476
 20
1.102831
 30
0.0
  0
SPLINE
  5
10f
100
AcDbEntity
  8
0
 62
7
100
AcDbSpline
 70
8
 71
3
 72
8
 73
4
 74
0
 40
0
 40
0
 40
0
 40
0
 40
1
 40
1
 40
1
 40
1
 10
0.149476
 20
1.102831
 30
0.0
 10
0.149476
 20
1.102831
 30
0.0
 10
0.000000
 20
0.990449
 30
0.0
 10
0.000000
 20
0.915696
 30
0.0
  0
SPLINE
  5
110
100
AcDbEntity
  8
0
 62
7
100
AcDbSpline
 70
8
 71
3
 72
8
 73
4
 74
0
 40
0
 40
0
 40
0
 40
0
 40
1
 40
1
 40
1
 40
1
 10
0.000000
 20
0.915696
 30
0.0
 10
0.000000
 20
0.840946
 30
0.0
 10
0.149606
 20
0.710041
 30
0.0
 10
0.243044
 20
0.597913
 30
0.0
  0
SPLINE
  5
111
100
AcDbEntity
  8
0
 62
7
100
AcDbSpline
 70
8
 71
3
 72
8
 73
4
 74
0
 40
0
 40
0
 40
0
 40
0
 40
1
 40
1
 40
1
 40
1
 10
0.243044
 20
0.597913
 30
0.0
 10
0.336484
 20
0.485788
 30
0.0
 10
0.654230
 20
0.261443
 30
0.0
 10
0.785045
 20
0.280130
 30
0.0
  0
SPLINE
  5
112
100
AcDbEntity
  8
0
 62
7
100
AcDbSpline
 70
8
 71
3
 72
8
 73
4
 74
0
 40
0
 40
0
 40
0
 40
0
 40
1
 40
1
 40
1
 40
1
 10
0.785045
 20
0.280130
 30
0.0
 10
0.915861
 20
0.298810
 30
0.0
 10
1.158867
 20
0.280286
 30
0.0
 10
1.252307
 20
0.224219
 30
0.0
  0
SPLINE
  5
113
100
AcDbEntity
  8
0
 62
7
100
AcDbSpline
 70
8
 71
3
 72
8
 73
4
 74
0
 40
0
 40
0
 40
0
 40
0
 40
1
 40
1
 40
1
 40
1
 10
1.252307
 20
0.224219
 30
0.0
 10
1.345748
 20
0.168156
 30
0.0
 10
1.569900
 20
0.093427
 30
0.0
 10
1.850218
 20
0.074739
 30
0.0
  0
SPLINE
  5
114
100
AcDbEntity
  8
0
 62
7
100
AcDbSpline
 70
8
 71
3
 72
8
 73
4
 74
0
 40
0
 40
0
 40
0
 40
0
 40
1
 40
1
 40
1
 40
1
 10
1.850218
 20
0.074739
 30
0.0
 10
2.130536
 20
0.056060
 30
0.0
 10
2.915216
 20
0.000000
 30
0.0
 10
3.120784
 20
0.000000
 30
0.0
  0
SPLINE
  5
115
100
AcDbEntity
  8
0
 62
7
100
AcDbSpline
 70
8
 71
3
 72
8
 73
4
 74
0
 40
0
 40
0
 40
0
 40
0
 40
1
 40
1
 40
1
 40
1
 10
3.120784
 20
0.000000
 30
0.0
 10
3.326350
 20
0.000000
 30
0.0
 10
3.382783
 20
0.037214
 30
0.0
 10
3.476223
 20
0.130651
 30
0.0
  0
SPLINE
  5
116
100
AcDbEntity
  8
0
 62
7
100
AcDbSpline
 70
8
 71
3
 72
8
 73
4
 74
0
 40
0
 40
0
 40
0
 40
0
 40
1
 40
1
 40
1
 40
1
 10
3.476223
 20
0.130651
 30
0.0
 10
3.569660
 20
0.224092
 30
0.0
 10
3.401065
 20
0.336447
 30
0.0
 10
3.345000
 20
0.467262
 30
0.0
  0
SPLINE
  5
117
100
AcDbEntity
  8
0
 62
7
100
AcDbSpline
 70
8
 71
3
 72
8
 73
4
 74
0
 40
0
 40
0
 40
0
 40
0
 40
1
 40
1
 40
1
 40
1
 10
3.345000
 20
0.467262
 30
0.0
 10
3.288938
 20
0.598077
 30
0.0
 10
3.532121
 20
0.560398
 30
0.0
 10
3.606871
 20
0.579086
 30
0.0
  0
SPLINE
  5
118
100
AcDbEntity
  8
0
 62
7
100
AcDbSpline
 70
8
 71
3
 72
8
 73
4
 74
0
 40
0
 40
0
 40
0
 40
0
 40
1
 40
1
 40
1
 40
1
 10
3.606871
 20
0.579086
 30
0.0
 10
3.681624
 20
0.597765
 30
0.0
 10
3.887407
 20
0.728565
 30
0.0
 10
4.018222
 20
0.728565
 30
0.0
  0
SPLINE
  5
119
100
AcDbEntity
  8
0
 62
7
100
AcDbSpline
 70
8
 71
3
 72
8
 73
4
 74
0
 40
0
 40
0
 40
0
 40
0
 40
1
 40
1
 40
1
 40
1
 10
4.018222
 20
0.728565
 30
0.0
 10
4.149037
 20
0.728565
 30
0.0
 10
4.130162
 20
0.597927
 30
0.0
 10
4.298352
 20
0.523174
 30
0.0
  0
SPLINE
  5
11a
100
AcDbEntity
  8
0
 62
7
100
AcDbSpline
 70
8
 71
3
 72
8
 73
4
 74
0
 40
0
 40
0
 40
0
 40
0
 40
1
 40
1
 40
1
 40
1
 10
4.298352
 20
0.523174
 30
0.0
 10
4.466542
 20
0.448424
 30
0.0
 10
4.709385
 20
0.205682
 30
0.0
 10
4.896263
 20
0.168307
 30
0.0
  0
SPLINE
  5
11b
100
AcDbEntity
  8
0
 62
7
100
AcDbSpline
 70
8
 71
3
 72
8
 73
4
 74
0
 40
0
 40
0
 40
0
 40
0
 40
1
 40
1
 40
1
 40
1
 10
4.896263
 20
0.168307
 30
0.0
 10
5.083143
 20
0.130932
 30
0.0
 10
5.512977
 20
0.168151
 30
0.0
 10
5.662483
 20
0.224219
 30
0.0
  0
SPLINE
  5
11c
100
AcDbEntity
  8
0
 62
7
100
AcDbSpline
 70
8
 71
3
 72
8
 73
4
 74
0
 40
0
 40
0
 40
0
 40
0
 40
1
 40
1
 40
1
 40
1
 10
5.662483
 20
0.224219
 30
0.0
 10
5.811986
 20
0.280281
 30
0.0
 10
5.793296
 20
0.410909
 30
0.0
 10
5.662483
 20
0.504346
 30
0.0
  0
SPLINE
  5
11d
100
AcDbEntity
  8
0
 62
7
100
AcDbSpline
 70
8
 71
3
 72
8
 73
4
 74
0
 40
0
 40
0
 40
0
 40
0
 40
1
 40
1
 40
1
 40
1
 10
5.662483
 20
0.504346
 30
0.0
 10
5.531668
 20
0.597786
 30
0.0
 10
5.214199
 20
0.766347
 30
0.0
 10
5.158137
 20
0.859785
 30
0.0
  0
SPLINE
  5
11e
100
AcDbEntity
  8
0
 62
7
100
AcDbSpline
 70
8
 71
3
 72
8
 73
4
 74
0
 40
0
 40
0
 40
0
 40
0
 40
1
 40
1
 40
1
 40
1
 10
5.158137
 20
0.859785
 30
0.0
 10
5.102072
 20
0.953225
 30
0.0
 10
5.083524
 20
1.065302
 30
0.0
 10
5.176975
 20
1.158743
 30
0.0
  0
SPLINE
  5
11f
100
AcDbEntity
  8
0
 62
7
100
AcDbSpline
 70
8
 71
3
 72
8
 73
4
 74
0
 40
0
 40
0
 40
0
 40
0
 40
1
 40
1
 40
1
 40
1
 10
5.176975
 20
1.158743
 30
0.0
 10
5.270413
 20
1.252183
 30
0.0
 10
5.363512
 20
1.214641
 30
0.0
 10
5.513014
 20
1.289394
 30
0.0
  0
SPLINE
  5
120
100
AcDbEntity
  8
0
 62
7
100
AcDbSpline
 70
8
 71
3
 72
8
 73
4
 74
0
 40
0
 40
0
 40
0
 40
0
 40
1
 40
1
 40
1
 40
1
 10
5.513014
 20
1.289394
 30
0.0
 10
5.662517
 20
1.364144
 30
0.0
 10
5.718405
 20
1.588757
 30
0.0
 10
5.718405
 20
1.719569
 30
0.0
  0
SPLINE
  5
121
100
AcDbEntity
  8
0
 62
7
100
AcDbSpline
 70
8
 71
3
 72
8
 73
4
 74
0
 40
0
 40
0
 40
0
 40
0
 40
1
 40
1
 40
1
 40
1
 10
5.718405
 20
1.719569
 30
0.0
 10
5.718405
 20
1.850385
 30
0.0
 10
5.736185
 20
1.992561
 30
0.0
 10
5.793145
 20
2.074439
 30
0.0
  0
SPLINE
  5
122
100
AcDbEntity
  8
0
 62
7
100
AcDbSpline
 70
8
 71
3
 72
8
 73
4
 74
0
 40
0
 40
0
 40
0
 40
0
 40
1
 40
1
 40
1
 40
1
 10
5.793145
 20
2.074439
 30
0.0
 10
5.840865
 20
2.143048
 30
0.0
 10
5.859402
 20
2.361962
 30
0.0
 10
5.862061
 20
2.511462
 30
0.0
  0
SPLINE
  5
123
100
AcDbEntity
  8
0
 62
7
100
AcDbSpline
 70
8
 71
3
 72
8
 73
4
 74
0
 40
0
 40
0
 40
0
 40
0
 40
1
 40
1
 40
1
 40
1
 10
5.862061
 20
2.511462
 30
0.0
 10
5.864892
 20
2.671106
 30
0.0
 10
5.793296
 20
2.709564
 30
0.0
 10
5.737233
 20
2.803001
 30
0.0
  0
SPLINE
  5
124
100
AcDbEntity
  8
0
 62
7
100
AcDbSpline
 70
8
 71
3
 72
8
 73
4
 74
0
 40
0
 40
0
 40
0
 40
0
 40
1
 40
1
 40
1
 40
1
 10
5.737233
 20
2.803001
 30
0.0
 10
5.681170
 20
2.896441
 30
0.0
 10
5.793131
 20
3.027220
 30
0.0
 10
5.867882
 20
3.027220
 30
0.0
  0
SPLINE
  5
125
100
AcDbEntity
  8
0
 62
7
100
AcDbSpline
 70
8
 71
3
 72
8
 73
4
 74
0
 40
0
 40
0
 40
0
 40
0
 40
1
 40
1
 40
1
 40
1
 10
5.867882
 20
3.027220
 30
0.0
 10
5.942634
 20
3.027220
 30
0.0
 10
6.279068
 20
3.083549
 30
0.0
 10
6.409883
 20
3.139612
 30
0.0
  0
SPLINE
  5
126
100
AcDbEntity
  8
0
 62
7
100
AcDbSpline
 70
8
 71
3
 72
8
 73
4
 74
0
 40
0
 40
0
 40
0
 40
0
 40
1
 40
1
 40
1
 40
1
 10
6.409883
 20
3.139612
 30
0.0
 10
6.540698
 20
3.195675
 30
0.0
 10
6.671882
 20
3.438835
 30
0.0
 10
6.765322
 20
3.550962
 30
0.0
  0
SPLINE
  5
127
100
AcDbEntity
  8
0
 62
7
100
AcDbSpline
 70
8
 71
3
 72
8
 73
4
 74
0
 40
0
 40
0
 40
0
 40
0
 40
1
 40
1
 40
1
 40
1
 10
6.765322
 20
3.550962
 30
0.0
 10
6.858759
 20
3.663090
 30
0.0
 10
6.783737
 20
3.905819
 30
0.0
 10
6.652927
 20
3.980569
 30
0.0
  0
SPLINE
  5
128
100
AcDbEntity
  8
0
 62
7
100
AcDbSpline
 70
8
 71
3
 72
8
 73
4
 74
0
 40
0
 40
0
 40
0
 40
0
 40
1
 40
1
 40
1
 40
1
 10
6.652927
 20
3.980569
 30
0.0
 10
6.522111
 20
4.055322
 30
0.0
 10
6.522008
 20
4.261107
 30
0.0
 10
6.409883
 20
4.391919
 30
0.0
  0
SPLINE
  5
129
100
AcDbEntity
  8
0
 62
7
100
AcDbSpline
 70
8
 71
3
 72
8
 73
4
 74
0
 40
0
 40
0
 40
0
 40
0
 40
1
 40
1
 40
1
 40
1
 10
6.409883
 20
4.391919
 30
0.0
 10
6.297755
 20
4.522734
 30
0.0
 10
6.167141
 20
4.802825
 30
0.0
 10
6.055016
 20
4.896265
 30
0.0
  0
SPLINE
  5
12a
100
AcDbEntity
  8
0
 62
7
100
AcDbSpline
 70
8
 71
3
 72
8
 73
4
 74
0
 40
0
 40
0
 40
0
 40
0
 40
1
 40
1
 40
1
 40
1
 10
6.055016
 20
4.896265
 30
0.0
 10
5.942888
 20
4.989706
 30
0.0
 10
5.681194
 20
5.064572
 30
0.0
 10
5.587754
 20
5.064572
 30
0.0
  0
SPLINE
  5
12b
100
AcDbEntity
  8
0
 62
7
100
AcDbSpline
 70
8
 71
3
 72
8
 73
4
 74
0
 40
0
 40
0
 40
0
 40
0
 40
1
 40
1
 40
1
 40
1
 10
5.587754
 20
5.064572
 30
0.0
 10
5.494314
 20
5.064572
 30
0.0
 10
5.438275
 20
5.064559
 30
0.0
 10
5.438275
 20
5.139312
 30
0.0
  0
SPLINE
  5
12c
100
AcDbEntity
  8
0
 62
7
100
AcDbSpline
 70
8
 71
3
 72
8
 73
4
 74
0
 40
0
 40
0
 40
0
 40
0
 40
1
 40
1
 40
1
 40
1
 10
5.438275
 20
5.139312
 30
0.0
 10
5.438275
 20
5.214062
 30
0.0
 10
5.419437
 20
5.307161
 30
0.0
 10
5.419437
 20
5.475351
 30
0.0
  0
SPLINE
  5
12d
100
AcDbEntity
  8
0
 62
7
100
AcDbSpline
 70
8
 71
3
 72
8
 73
4
 74
0
 40
0
 40
0
 40
0
 40
0
 40
1
 40
1
 40
1
 40
1
 10
5.419437
 20
5.475351
 30
0.0
 10
5.419437
 20
5.643541
 30
0.0
 10
5.208416
 20
6.364787
 30
0.0
 10
4.933918
 20
6.802398
 30
0.0
  0
SPLINE
  5
12e
100
AcDbEntity
  8
0
 62
7
100
AcDbSpline
 70
8
 71
3
 72
8
 73
4
 74
0
 40
0
 40
0
 40
0
 40
0
 40
1
 40
1
 40
1
 40
1
 10
4.933918
 20
6.802398
 30
0.0
 10
4.876654
 20
6.893690
 30
0.0
 10
4.783765
 20
6.872618
 30
0.0
 10
4.672047
 20
6.840053
 30
0.0
  0
SPLINE
  5
12f
100
AcDbEntity
  8
0
 62
7
100
AcDbSpline
 70
8
 71
3
 72
8
 73
4
 74
0
 40
0
 40
0
 40
0
 40
0
 40
1
 40
1
 40
1
 40
1
 10
4.672047
 20
6.840053
 30
0.0
 10
4.598072
 20
6.818490
 30
0.0
 10
4.560223
 20
6.783467
 30
0.0
 10
4.560223
 20
6.540526
 30
0.0
  0
SPLINE
  5
130
100
AcDbEntity
  8
0
 62
7
100
AcDbSpline
 70
8
 71
3
 72
8
 73
4
 74
0
 40
0
 40
0
 40
0
 40
0
 40
1
 40
1
 40
1
 40
1
 10
4.560223
 20
6.540526
 30
0.0
 10
4.560223
 20
6.297583
 30
0.0
 10
4.410758
 20
6.541056
 30
0.0
 10
4.336008
 20
6.671746
 30
0.0
  0
SPLINE
  5
131
100
AcDbEntity
  8
0
 62
7
100
AcDbSpline
 70
8
 71
3
 72
8
 73
4
 74
0
 40
0
 40
0
 40
0
 40
0
 40
1
 40
1
 40
1
 40
1
 10
4.336008
 20
6.671746
 30
0.0
 10
4.261255
 20
6.802562
 30
0.0
 10
4.129932
 20
6.952155
 30
0.0
 10
3.961741
 20
6.989530
 30
0.0
  0
SPLINE
  5
132
100
AcDbEntity
  8
0
 62
7
100
AcDbSpline
 70
8
 71
3
 72
8
 73
4
 74
0
 40
0
 40
0
 40
0
 40
0
 40
1
 40
1
 40
1
 40
1
 10
3.961741
 20
6.989530
 30
0.0
 10
3.930206
 20
6.996541
 30
0.0
 10
3.899815
 20
6.999928
 30
0.0
 10
3.870457
 20
7.000377
 30
0.0
  0
LWPOLYLINE
  5
133
100
AcDbEntity
  8
0
 62
7
100
AcDbPolyline
 90
1
 70
1
 10
3.870457
 20
7.000377
 30
0.0
  0
ENDSEC
  0
SECTION
  2
OBJECTS
  0
DICTIONARY
  5
C
330
0
100
AcDbDictionary
  3
ACAD_GROUP
350
D
  3
ACAD_MLINESTYLE
350
17
  0
DICTIONARY
  5
D
330
C
100
AcDbDictionary
  0
DICTIONARY
  5
1A
330
C
100
AcDbDictionary
  0
DICTIONARY
  5
17
330
C
100
AcDbDictionary
  3
STANDARD
350
18
  0
DICTIONARY
  5
19
330
C
100
AcDbDictionary
  0
ENDSEC
  0
EOF
